<svg width="1759" height="616" viewBox="0 0 1759 616" fill="none" xmlns="http://www.w3.org/2000/svg">
<path d="M337.125 115.492C293.751 115.495 253.748 137.491 232.5 173.029C211.252 137.491 171.249 115.495 127.875 115.492C61.5345 115.492 7.75 173.321 7.75 235.667C7.75 392.258 232.5 501.508 232.5 501.508C232.5 501.508 457.25 392.258 457.25 235.667C457.25 173.321 403.465 115.492 337.125 115.492Z" fill="#E07A5F"/>
<path d="M265.544 300.23C256.731 287.198 241.721 279.417 225.392 279.417C209.063 279.417 194.053 287.198 185.242 300.23L164.006 331.631C160.482 336.84 158.857 342.859 159.303 349.033C159.75 355.208 162.229 360.958 166.471 365.666C170.716 370.37 176.326 373.585 182.693 374.964C189.06 376.344 195.586 375.754 201.566 373.263L201.967 373.095C217.014 366.951 234.208 367.007 249.216 373.263C253.088 374.876 257.189 375.692 261.328 375.692C263.579 375.692 265.843 375.45 268.085 374.965C274.452 373.587 280.062 370.372 284.308 365.667C288.552 360.964 291.032 355.212 291.481 349.036C291.929 342.859 290.303 336.841 286.78 331.629L265.544 300.23Z" fill="#F4F1DE"/>
<path d="M169.726 300.189C176.043 297.888 180.843 293.063 183.24 286.6C185.521 280.451 185.335 273.508 182.712 267.05C180.088 260.596 175.316 255.327 169.273 252.212C162.926 248.942 155.952 248.41 149.645 250.714C136.956 255.338 131.133 270.201 136.666 283.853C141.086 294.719 151.395 301.578 161.817 301.578C164.478 301.578 167.147 301.13 169.726 300.189Z" fill="#F4F1DE"/>
<path d="M210.931 275.587C226.793 275.587 239.699 261.651 239.699 244.521C239.699 227.386 226.793 213.447 210.931 213.447C195.069 213.447 182.165 227.386 182.165 244.521C182.165 261.651 195.069 275.587 210.931 275.587Z" fill="#F4F1DE"/>
<path d="M260.614 283.22H260.616C263.056 283.987 265.545 284.354 268.024 284.354C279.592 284.354 290.866 276.373 295.168 264.108C297.646 257.048 297.483 249.582 294.71 243.089C291.808 236.29 286.43 231.356 279.566 229.193C272.7 227.03 265.275 227.933 258.657 231.731C252.335 235.36 247.49 241.247 245.016 248.308C239.793 263.202 246.791 278.863 260.614 283.22V283.22Z" fill="#F4F1DE"/>
<path d="M321.198 279.594L321.193 279.59C310.254 271.93 293.894 275.25 284.72 286.994C275.556 298.744 276.989 314.54 287.912 322.205C291.896 325.002 296.603 326.339 301.42 326.339C309.816 326.339 318.552 322.277 324.391 314.808C333.554 303.058 332.122 287.262 321.198 279.594V279.594Z" fill="#F4F1DE"/>
<path d="M534.053 122.047H602.9C656.774 122.047 683.711 155.494 683.711 222.389C683.711 247.942 680.212 266.904 673.213 279.273C666.214 291.643 653.844 301.002 636.104 307.35C656.449 315.488 670.365 325.904 677.852 338.6C685.501 351.132 689.326 370.012 689.326 395.24C689.326 464.413 659.704 499 600.459 499H534.053V122.047ZM581.904 288.062C601.598 288.062 615.27 283.505 622.92 274.391C630.57 264.788 634.395 247.942 634.395 223.854C634.395 183.163 619.746 162.818 590.449 162.818H586.543H584.346C583.044 162.818 582.23 162.9 581.904 163.062V288.062ZM581.904 455.543C602.738 455.543 617.142 451.067 625.117 442.115C633.092 433.163 637.08 416.969 637.08 393.531C637.08 369.443 632.93 352.597 624.629 342.994C616.491 333.229 602.249 328.346 581.904 328.346V455.543ZM712.422 246.314H759.053V277.809C767.028 264.462 774.922 255.104 782.734 249.732C790.547 244.361 800.882 241.269 813.74 240.455V289.283C810.485 288.795 807.718 288.551 805.439 288.551C788.675 288.551 776.712 292.864 769.551 301.49C762.552 309.954 759.053 324.765 759.053 345.924V499H712.422V246.314ZM920.332 413.795H963.789C960.371 473.202 935.957 502.906 890.547 502.906C877.038 502.906 865.4 500.383 855.635 495.338C846.032 490.292 838.057 482.48 831.709 471.9C825.361 461.321 820.641 447.893 817.549 431.617C814.619 415.341 813.154 395.973 813.154 373.512C813.154 328.915 819.339 295.875 831.709 274.391C844.242 252.906 863.529 242.164 889.57 242.164C940.189 242.164 965.498 286.76 965.498 375.953V381.812H858.809C858.809 435.849 869.551 462.867 891.035 462.867C910.566 462.867 920.332 446.51 920.332 413.795ZM917.891 348.121C915.938 321.591 912.926 304.176 908.857 295.875C904.626 286.598 897.79 281.959 888.35 281.959C878.747 281.959 871.911 286.598 867.842 295.875C863.773 304.176 860.762 321.591 858.809 348.121H917.891ZM1079.9 413.795H1123.36C1119.94 473.202 1095.53 502.906 1050.12 502.906C1036.61 502.906 1024.97 500.383 1015.21 495.338C1005.6 490.292 997.627 482.48 991.279 471.9C984.932 461.321 980.212 447.893 977.119 431.617C974.189 415.341 972.725 395.973 972.725 373.512C972.725 328.915 978.91 295.875 991.279 274.391C1003.81 252.906 1023.1 242.164 1049.14 242.164C1099.76 242.164 1125.07 286.76 1125.07 375.953V381.812H1018.38C1018.38 435.849 1029.12 462.867 1050.61 462.867C1070.14 462.867 1079.9 446.51 1079.9 413.795ZM1077.46 348.121C1075.51 321.591 1072.5 304.176 1068.43 295.875C1064.2 286.598 1057.36 281.959 1047.92 281.959C1038.32 281.959 1031.48 286.598 1027.41 295.875C1023.34 304.176 1020.33 321.591 1018.38 348.121H1077.46ZM1141.82 246.314H1188.45V275.367C1201.79 253.232 1219.05 242.164 1240.21 242.164C1260.71 242.164 1275.36 250.221 1284.15 266.334C1289.03 275.449 1291.47 293.108 1291.47 319.312V499H1244.84L1244.6 330.055C1244.6 312.965 1242.57 300.839 1238.5 293.678C1234.43 286.516 1227.43 282.936 1217.5 282.936C1212.13 282.936 1207.57 283.912 1203.83 285.865C1200.25 287.656 1197.32 290.667 1195.04 294.898C1192.76 298.967 1191.05 304.339 1189.91 311.012C1188.94 317.685 1188.45 325.904 1188.45 335.67V499H1141.82V246.314ZM1463.74 84.2051V499H1417.11V466.529C1410.44 480.364 1403.76 489.885 1397.09 495.094C1390.42 500.302 1381.55 502.906 1370.48 502.906C1349.65 502.906 1334.35 492.245 1324.58 470.924C1314.81 449.439 1309.93 415.748 1309.93 369.85C1309.93 347.714 1311.15 328.59 1313.59 312.477C1316.04 296.363 1319.7 283.098 1324.58 272.682C1329.63 262.265 1336.05 254.615 1343.87 249.732C1351.68 244.687 1360.96 242.164 1371.7 242.164C1381.95 242.164 1390.42 244.605 1397.09 249.488C1400.35 251.767 1403.68 255.022 1407.1 259.254C1410.52 263.486 1413.85 268.694 1417.11 274.879V84.2051H1463.74ZM1358.27 371.559C1358.27 404.762 1360.47 427.955 1364.86 441.139C1369.42 454.322 1377.4 460.914 1388.79 460.914C1399.21 460.914 1406.77 454.078 1411.49 440.406C1416.21 425.758 1418.57 403.215 1418.57 372.779C1418.57 342.18 1416.21 319.557 1411.49 304.908C1406.77 291.236 1399.21 284.4 1388.79 284.4C1377.72 284.4 1369.83 290.911 1365.11 303.932C1360.55 315.976 1358.27 338.518 1358.27 371.559ZM1589.38 413.795H1632.83C1629.41 473.202 1605 502.906 1559.59 502.906C1546.08 502.906 1534.44 500.383 1524.68 495.338C1515.07 490.292 1507.1 482.48 1500.75 471.9C1494.4 461.321 1489.68 447.893 1486.59 431.617C1483.66 415.341 1482.2 395.973 1482.2 373.512C1482.2 328.915 1488.38 295.875 1500.75 274.391C1513.28 252.906 1532.57 242.164 1558.61 242.164C1609.23 242.164 1634.54 286.76 1634.54 375.953V381.812H1527.85C1527.85 435.849 1538.59 462.867 1560.08 462.867C1579.61 462.867 1589.38 446.51 1589.38 413.795ZM1586.93 348.121C1584.98 321.591 1581.97 304.176 1577.9 295.875C1573.67 286.598 1566.83 281.959 1557.39 281.959C1547.79 281.959 1540.95 286.598 1536.88 295.875C1532.82 304.176 1529.8 321.591 1527.85 348.121H1586.93ZM1651.29 246.314H1697.92V277.809C1705.9 264.462 1713.79 255.104 1721.6 249.732C1729.41 244.361 1739.75 241.269 1752.61 240.455V289.283C1749.35 288.795 1746.59 288.551 1744.31 288.551C1727.54 288.551 1715.58 292.864 1708.42 301.49C1701.42 309.954 1697.92 324.765 1697.92 345.924V499H1651.29V246.314Z" fill="#E07A5F"/>
</svg>
