<svg width="2189" height="2093" viewBox="0 0 2189 2093" fill="none" xmlns="http://www.w3.org/2000/svg">
<path d="M0 1246.04C0 1069.63 146.801 651 327.89 651C508.978 651 655.779 1069.63 655.779 1246.04C655.754 1330.75 621.198 1411.97 559.709 1471.86C498.221 1531.74 414.835 1565.38 327.89 1565.38C240.944 1565.38 157.558 1531.74 96.0699 1471.86C34.5814 1411.97 0.0249319 1330.75 0 1246.04Z" fill="#D37F65"/>
<path d="M327.89 2023.18C327.175 2023.18 326.489 2022.9 325.984 2022.41C325.478 2021.92 325.194 2021.25 325.194 2020.55V919.264C325.194 918.567 325.478 917.899 325.984 917.407C326.489 916.914 327.175 916.637 327.89 916.637C328.605 916.637 329.291 916.914 329.797 917.407C330.302 917.899 330.586 918.567 330.586 919.264V2020.55C330.586 2021.25 330.302 2021.92 329.797 2022.41C329.291 2022.9 328.605 2023.18 327.89 2023.18Z" fill="#3F3D56"/>
<path d="M327.889 1131.88C327.535 1131.88 327.184 1131.81 326.857 1131.68C326.53 1131.54 326.233 1131.35 325.983 1131.11L196.205 1004.68C195.951 1004.43 195.75 1004.14 195.612 1003.82C195.475 1003.51 195.403 1003.16 195.402 1002.82C195.401 1002.47 195.47 1002.13 195.605 1001.81C195.741 1001.49 195.94 1001.19 196.192 1000.95C196.443 1000.7 196.742 1000.51 197.071 1000.38C197.4 1000.25 197.752 1000.18 198.108 1000.18C198.463 1000.18 198.815 1000.25 199.143 1000.39C199.471 1000.52 199.768 1000.72 200.018 1000.96L329.796 1127.39C330.173 1127.76 330.43 1128.23 330.534 1128.74C330.638 1129.25 330.584 1129.77 330.38 1130.25C330.176 1130.73 329.83 1131.14 329.387 1131.43C328.944 1131.72 328.423 1131.88 327.889 1131.88V1131.88Z" fill="#3F3D56"/>
<path d="M327.89 1350.75C327.357 1350.75 326.835 1350.6 326.392 1350.31C325.949 1350.02 325.603 1349.61 325.399 1349.13C325.195 1348.65 325.142 1348.12 325.246 1347.61C325.35 1347.1 325.606 1346.63 325.983 1346.27L543.32 1134.54C543.57 1134.29 543.868 1134.09 544.195 1133.96C544.523 1133.83 544.875 1133.76 545.23 1133.75C545.586 1133.75 545.938 1133.82 546.267 1133.95C546.595 1134.08 546.894 1134.28 547.145 1134.52C547.397 1134.77 547.596 1135.06 547.732 1135.38C547.867 1135.7 547.936 1136.04 547.935 1136.39C547.934 1136.74 547.863 1137.08 547.725 1137.4C547.588 1137.72 547.387 1138.01 547.134 1138.25L329.796 1349.98C329.546 1350.22 329.249 1350.42 328.922 1350.55C328.595 1350.68 328.244 1350.75 327.89 1350.75Z" fill="#3F3D56"/>
<path d="M132.833 2091.99C133.301 2092.34 133.794 2092.65 134.267 2093H536.246C544.123 2061.91 546.904 2030.79 535.139 2003.76C518.376 1965.25 468.764 1941.21 429.323 1957.74C419.978 1961.77 411.838 1968.04 405.668 1975.98C390.254 1949.1 362.605 1928.83 330.691 1928.85C290.708 1928.88 257.464 1960.74 246.616 1997.53C229.146 1968.8 194.639 1948.73 160.912 1957.36C104.5 1971.81 86.6814 2057.24 132.833 2091.99Z" fill="#F2F2F2"/>
<path d="M1717.45 1484.39C1717.45 1357.63 1823.01 1056.81 1953.23 1056.81C2083.44 1056.81 2189 1357.63 2189 1484.39C2188.96 1545.29 2164.1 1603.67 2119.89 1646.71C2075.68 1689.75 2015.73 1713.93 1953.23 1713.93C1890.72 1713.93 1830.78 1689.75 1786.57 1646.71C1742.35 1603.67 1717.49 1545.29 1717.45 1484.39Z" fill="#E6E6E6"/>
<path d="M1953.23 2042.83C1952.97 2042.83 1952.72 2042.78 1952.48 2042.68C1952.25 2042.59 1952.03 2042.45 1951.85 2042.28C1951.67 2042.1 1951.53 2041.89 1951.43 2041.66C1951.34 2041.43 1951.29 2041.19 1951.29 2040.94V1249.58C1951.29 1249.08 1951.49 1248.6 1951.86 1248.25C1952.22 1247.89 1952.71 1247.7 1953.23 1247.7C1953.74 1247.7 1954.23 1247.89 1954.59 1248.25C1954.96 1248.6 1955.16 1249.08 1955.16 1249.58V2040.94C1955.16 2041.19 1955.11 2041.43 1955.02 2041.66C1954.92 2041.89 1954.78 2042.1 1954.6 2042.28C1954.42 2042.45 1954.2 2042.59 1953.97 2042.68C1953.73 2042.78 1953.48 2042.83 1953.23 2042.83Z" fill="#3F3D56"/>
<path d="M1953.23 1402.36C1952.97 1402.36 1952.72 1402.31 1952.48 1402.21C1952.25 1402.12 1952.03 1401.98 1951.85 1401.8L1858.54 1310.95C1858.17 1310.6 1857.97 1310.12 1857.97 1309.62C1857.97 1309.12 1858.17 1308.64 1858.54 1308.28C1858.9 1307.93 1859.39 1307.73 1859.91 1307.73C1860.42 1307.73 1860.91 1307.93 1861.28 1308.28L1954.6 1399.13C1954.87 1399.4 1955.05 1399.73 1955.13 1400.1C1955.2 1400.47 1955.16 1400.85 1955.02 1401.19C1954.87 1401.54 1954.62 1401.83 1954.3 1402.04C1953.98 1402.25 1953.61 1402.36 1953.23 1402.36Z" fill="#3F3D56"/>
<path d="M1953.23 1559.63C1952.84 1559.63 1952.47 1559.52 1952.15 1559.32C1951.83 1559.11 1951.58 1558.81 1951.44 1558.47C1951.29 1558.12 1951.25 1557.75 1951.33 1557.38C1951.4 1557.01 1951.58 1556.68 1951.86 1556.41L2108.14 1404.27C2108.5 1403.91 2108.99 1403.71 2109.51 1403.71C2110.02 1403.71 2110.51 1403.91 2110.88 1404.27C2111.24 1404.62 2111.44 1405.1 2111.44 1405.6C2111.44 1406.1 2111.24 1406.58 2110.88 1406.94L1954.6 1559.08C1954.42 1559.26 1954.2 1559.4 1953.97 1559.49C1953.73 1559.59 1953.48 1559.63 1953.23 1559.63Z" fill="#3F3D56"/>
<path d="M1812.97 2092.27C1813.3 2092.52 1813.66 2092.75 1814 2093H2103.05C2108.71 2070.66 2110.71 2048.3 2102.25 2028.87C2090.2 2001.2 2054.52 1983.92 2026.16 1995.81C2019.44 1998.7 2013.59 2003.21 2009.15 2008.91C1998.07 1989.6 1978.19 1975.03 1955.24 1975.05C1926.49 1975.07 1902.58 1997.96 1894.78 2024.4C1882.22 2003.76 1857.41 1989.33 1833.16 1995.54C1792.59 2005.91 1779.78 2067.3 1812.97 2092.27Z" fill="#F2F2F2"/>
<path d="M1139.14 1558.98C1159.04 1597.33 1138.25 1651.35 1094.8 1663.48C1082.58 1666.89 1068.73 1666.54 1057.97 1659.35C1049.09 1653.41 1042.68 1642.91 1043.52 1632.23C1045.15 1611.66 1072.03 1604.02 1089.14 1610.66C1112.32 1619.65 1122.69 1646.13 1125.93 1668.36C1129.9 1695.55 1124.46 1723.63 1113.55 1748.75C1091.72 1799.03 1048.52 1838.2 1005.69 1871.83C961.747 1906.28 913.586 1935.28 862.313 1958.19C855.873 1961.07 849.389 1963.85 842.86 1966.53C841.94 1967.06 841.271 1967.93 841 1968.93C840.728 1969.94 840.876 1971.02 841.409 1971.92C841.969 1972.8 842.856 1973.44 843.886 1973.7C844.916 1973.97 846.01 1973.83 846.943 1973.33C903.341 1950.08 956.318 1919.62 1004.48 1882.77C1051.1 1847.13 1098.15 1805.06 1121.4 1750.73C1132.99 1723.65 1138.21 1693.74 1133.47 1664.59C1129.48 1640.05 1116.95 1612.9 1091.68 1603.21C1071.74 1595.56 1043.95 1603.62 1036.87 1624.72C1032.98 1636.31 1037.01 1648.86 1044.72 1658.03C1048.94 1662.87 1054.18 1666.75 1060.1 1669.42C1066.01 1672.08 1072.45 1673.46 1078.96 1673.46C1104.96 1673.98 1128.75 1657.73 1141.81 1636.64C1154.12 1616.83 1157.86 1593.08 1152.23 1570.59C1150.78 1565.2 1148.73 1559.97 1146.13 1555.01C1143.78 1550.48 1136.8 1554.47 1139.14 1558.98Z" fill="#CCCCCC"/>
<path d="M1587.02 2036.02L1557.95 2046.01L1504.55 1941.55L1547.45 1926.8L1587.02 2036.02Z" fill="#A0616A"/>
<path d="M1534.26 2045.06L1590.32 2025.79L1602.77 2060.17L1511.42 2091.58C1509.79 2087.07 1509.08 2082.28 1509.34 2077.5C1509.61 2072.72 1510.83 2068.03 1512.95 2063.71C1515.07 2059.39 1518.05 2055.52 1521.7 2052.32C1525.36 2049.12 1529.63 2046.66 1534.26 2045.06Z" fill="#2F2E41"/>
<path d="M1271.4 2063.67L1240.58 2063.67L1225.92 1947.84L1271.42 1947.85L1271.4 2063.67Z" fill="#A0616A"/>
<path d="M1218.56 2055.09H1278.01V2091.55H1181.14C1181.14 2086.76 1182.1 2082.02 1183.99 2077.59C1185.87 2073.17 1188.62 2069.15 1192.1 2065.77C1195.57 2062.38 1199.7 2059.69 1204.24 2057.86C1208.78 2056.03 1213.65 2055.09 1218.56 2055.09Z" fill="#2F2E41"/>
<path d="M1268.55 2029.66C1267.53 2029.66 1266.52 2029.53 1265.53 2029.29L1220.08 2018.06C1217.3 2017.38 1214.87 2015.77 1213.2 2013.5C1211.53 2011.24 1210.74 2008.48 1210.96 2005.7L1254.4 1453.46L1255.74 1453.56L1254.4 1453.46C1255.33 1442 1260.49 1431.26 1268.93 1423.24C1277.37 1415.21 1288.52 1410.45 1300.3 1409.83L1437.68 1402.88L1460.78 1749.45L1597.79 1989.83C1598.64 1991.33 1599.15 1992.99 1599.28 1994.7C1599.41 1996.41 1599.16 1998.13 1598.54 1999.73C1597.92 2001.34 1596.95 2002.79 1595.7 2003.99C1594.44 2005.2 1592.94 2006.12 1591.28 2006.7L1528.17 2028.76C1525.32 2029.77 1522.18 2029.7 1519.37 2028.56C1516.57 2027.41 1514.32 2025.28 1513.06 2022.59L1351.94 1682.67C1351.58 1681.91 1350.98 1681.28 1350.23 1680.87C1349.48 1680.47 1348.62 1680.31 1347.77 1680.41C1346.91 1680.51 1346.12 1680.88 1345.49 1681.45C1344.87 1682.03 1344.45 1682.78 1344.29 1683.6L1280.45 2019.98C1279.93 2022.69 1278.46 2025.14 1276.29 2026.91C1274.12 2028.67 1271.38 2029.65 1268.55 2029.66Z" fill="#2F2E41"/>
<path d="M1117.81 1539.3C1119.27 1536 1121.46 1533.04 1124.22 1530.65C1126.98 1528.25 1130.25 1526.48 1133.79 1525.45C1137.33 1524.42 1141.06 1524.16 1144.72 1524.68C1148.37 1525.21 1151.87 1526.51 1154.95 1528.49L1202.82 1496.98L1229.57 1520.65L1161.33 1564.22C1157.57 1569.05 1152.12 1572.37 1146.01 1573.54C1139.91 1574.72 1133.57 1573.67 1128.21 1570.6C1122.84 1567.52 1118.82 1562.64 1116.9 1556.87C1114.99 1551.11 1115.31 1544.85 1117.81 1539.3L1117.81 1539.3Z" fill="#A0616A"/>
<path d="M1378.05 1192.49C1414.62 1192.49 1444.27 1163.61 1444.27 1127.98C1444.27 1092.35 1414.62 1063.47 1378.05 1063.47C1341.48 1063.47 1311.83 1092.35 1311.83 1127.98C1311.83 1163.61 1341.48 1192.49 1378.05 1192.49Z" fill="#A0616A"/>
<path d="M1287.95 1424.4C1284.26 1424.4 1280.61 1423.6 1277.28 1422.07C1273.94 1420.53 1270.99 1418.3 1268.64 1415.54C1266.28 1412.77 1264.58 1409.53 1263.66 1406.05C1262.73 1402.57 1262.6 1398.94 1263.28 1395.4L1274.84 1335.22C1262.5 1291.58 1325.35 1253.1 1328.03 1251.48L1367.24 1236.83L1367.72 1238.06L1367.24 1236.83C1374.61 1234.08 1382.56 1233.15 1390.39 1234.13C1398.22 1235.11 1405.67 1237.95 1412.09 1242.42C1418.52 1246.89 1423.7 1252.83 1427.19 1259.73C1430.68 1266.62 1432.36 1274.25 1432.08 1281.93L1427.33 1414.29L1289.87 1424.33C1289.23 1424.38 1288.59 1424.4 1287.95 1424.4Z" fill="#D37F65"/>
<path d="M1345.32 1837.11C1315.12 1836.76 1284.99 1834.41 1255.13 1830.08L1253.86 1829.89L1253.99 1828.65C1256.37 1806.04 1312.36 1274.55 1324.47 1237.08C1327.6 1227.4 1337.34 1219.79 1353.42 1214.47C1403.94 1197.74 1460.69 1222.55 1482.61 1270.96C1490.66 1288.82 1494.63 1308.17 1494.24 1327.68L1484.05 1795.57L1482.97 1795.77C1482.69 1795.82 1454.47 1801.2 1417.21 1824.65C1402.05 1834.2 1373.93 1837.11 1345.32 1837.11Z" fill="#3F3D56"/>
<path opacity="0.05098" d="M1420.9 1327.92C1455.93 1385.85 1438.26 1416.7 1405.12 1475.82C1386.74 1508.62 1330.03 1549.17 1303.47 1523.1C1276.91 1497.03 1297.9 1461.59 1309.43 1425.6C1320.97 1389.6 1345.78 1359.96 1371.68 1333.19C1390.15 1314.1 1428.28 1329.77 1420.9 1327.92Z" fill="black"/>
<path d="M1193.13 1554.6C1190.46 1554.6 1187.87 1553.74 1185.75 1552.15C1183.63 1550.57 1182.1 1548.35 1181.41 1545.83L1173 1515.21C1172.37 1512.88 1172.48 1510.43 1173.32 1508.17C1174.15 1505.91 1175.66 1503.94 1177.67 1502.54L1313.78 1407.66L1332.13 1306.16C1333.37 1299.3 1336.06 1292.77 1340.03 1286.98C1344 1281.19 1349.17 1276.27 1355.2 1272.53C1361.23 1268.8 1367.99 1266.32 1375.06 1265.27C1382.13 1264.22 1389.34 1264.61 1396.24 1266.42C1403.14 1268.23 1409.58 1271.43 1415.15 1275.79C1420.72 1280.16 1425.29 1285.61 1428.57 1291.8C1431.86 1297.98 1433.79 1304.77 1434.24 1311.72C1434.68 1318.67 1433.64 1325.63 1431.17 1332.17L1392.4 1434.93C1384.83 1455.11 1369.53 1471.65 1349.71 1481.09L1198.48 1553.39C1196.81 1554.19 1194.99 1554.6 1193.13 1554.6Z" fill="#3F3D56"/>
<path d="M1350.09 1103.49C1346.91 1109.82 1341.46 1114.79 1334.77 1117.48C1328.08 1120.17 1320.62 1120.38 1313.78 1118.08C1306.94 1115.78 1301.21 1111.13 1297.65 1104.99C1294.09 1098.85 1292.96 1091.66 1294.46 1084.77C1297.27 1071.9 1304.06 1060.18 1313.9 1051.18C1323.75 1042.18 1336.19 1036.33 1349.55 1034.42C1362.91 1032.51 1376.55 1034.63 1388.64 1040.49C1400.73 1046.35 1410.69 1055.67 1417.17 1067.21C1438.13 1052.93 1471.03 1060.14 1483.69 1081.79C1496.35 1103.44 1485.94 1134.68 1462.65 1144.97C1451.06 1150.08 1451.92 1169.84 1463.92 1173.98C1467.92 1175.37 1471.38 1177.93 1473.83 1181.31C1476.27 1184.7 1477.57 1188.74 1477.55 1192.88C1477.52 1197.02 1476.18 1201.05 1473.7 1204.41C1471.22 1207.77 1467.73 1210.3 1463.71 1211.64C1448.62 1216.67 1433.23 1221.75 1417.29 1222.15C1401.34 1222.54 1384.45 1217.51 1374.38 1205.46C1364.32 1193.4 1363.62 1173.61 1375.49 1163.23C1381.51 1157.71 1385.53 1150.43 1386.92 1142.49C1388.31 1134.55 1387 1126.39 1383.2 1119.23C1375.28 1105.15 1354.08 1095.54 1350.09 1103.49Z" fill="#2F2E41"/>
<path d="M922.407 2079C919.324 2079 916.296 2078.2 913.63 2076.69C910.963 2075.18 908.753 2073.02 907.222 2070.41C905.691 2067.8 904.893 2064.85 904.909 2061.84C904.926 2058.84 905.755 2055.89 907.315 2053.3V2053.3L931.842 2012.51L962.086 2029.76L937.559 2070.56C936.009 2073.13 933.796 2075.27 931.137 2076.75C928.479 2078.23 925.469 2079.01 922.407 2079Z" fill="#D37F65"/>
<path d="M1018.66 1985.76C1030.57 1985.76 1040.23 1976.35 1040.23 1964.75C1040.23 1953.14 1030.57 1943.74 1018.66 1943.74C1006.75 1943.74 997.088 1953.14 997.088 1964.75C997.088 1976.35 1006.75 1985.76 1018.66 1985.76Z" fill="#D37F65"/>
<path d="M827.508 2079C824.425 2079 821.397 2078.2 818.73 2076.69C816.064 2075.18 813.854 2073.02 812.322 2070.41C810.791 2067.8 809.994 2064.85 810.01 2061.84C810.026 2058.84 810.856 2055.89 812.416 2053.3L836.943 2012.51L867.187 2029.76L842.66 2070.56C841.11 2073.13 838.896 2075.27 836.238 2076.75C833.58 2078.23 830.57 2079.01 827.508 2079Z" fill="#D37F65"/>
<path d="M968.725 2051.73H860.045C845.255 2051.72 831.075 2045.99 820.617 2035.8C810.159 2025.61 804.276 2011.8 804.259 1997.39V1981.3C804.265 1976.3 806.308 1971.5 809.94 1967.96C813.572 1964.43 818.496 1962.44 823.632 1962.43H968.725C980.881 1962.43 992.539 1967.13 1001.13 1975.51C1009.73 1983.88 1014.56 1995.24 1014.56 2007.08C1014.56 2018.92 1009.73 2030.28 1001.13 2038.66C992.539 2047.03 980.881 2051.73 968.725 2051.73Z" fill="#3F3D56"/>
<path d="M963.575 2092.89C958.929 2092.89 954.474 2091.09 951.189 2087.89C947.903 2084.69 946.055 2080.35 946.05 2075.82V2028.54H981.1V2075.82C981.095 2080.35 979.247 2084.69 975.961 2087.89C972.676 2091.09 968.221 2092.89 963.575 2092.89Z" fill="#3F3D56"/>
<path d="M861.87 2092.89C857.223 2092.89 852.769 2091.09 849.483 2087.89C846.198 2084.69 844.35 2080.35 844.345 2075.82V2028.54H879.395V2075.82C879.39 2080.35 877.541 2084.69 874.256 2087.89C870.971 2091.09 866.516 2092.89 861.87 2092.89Z" fill="#3F3D56"/>
<path d="M837.604 1898.42H794.465V1843.27C794.465 1837.69 796.738 1832.35 800.783 1828.41C804.828 1824.47 810.314 1822.25 816.035 1822.25C821.755 1822.25 827.241 1824.47 831.286 1828.41C835.331 1832.35 837.604 1837.69 837.604 1843.27V1898.42Z" fill="#D37F65"/>
<path d="M834.184 1976.57H762.836C758.713 1976.56 754.759 1974.97 751.844 1972.13C748.928 1969.29 747.288 1965.43 747.283 1961.42V1925.01C747.298 1912.22 752.521 1899.95 761.806 1890.91C771.092 1881.86 783.681 1876.77 796.813 1876.76H808.195C819.209 1876.77 829.768 1881.04 837.556 1888.63C845.343 1896.21 849.724 1906.5 849.737 1917.23V1961.42C849.732 1965.43 848.092 1969.29 845.176 1972.13C842.26 1974.97 838.307 1976.56 834.184 1976.57Z" fill="#3F3D56"/>
<path d="M837.604 1898.42H807.946V1836.7C807.946 1832.87 809.509 1829.19 812.29 1826.48C815.07 1823.77 818.842 1822.25 822.775 1822.25C826.708 1822.25 830.48 1823.77 833.261 1826.48C836.042 1829.19 837.604 1832.87 837.604 1836.7V1898.42Z" fill="#3F3D56"/>
<path d="M830.212 1976.12H752.024C746.303 1976.12 740.817 1973.9 736.772 1969.96C732.727 1966.02 730.455 1960.68 730.455 1955.1C730.455 1949.53 732.727 1944.19 736.772 1940.25C740.817 1936.3 746.303 1934.09 752.024 1934.09H830.212V1976.12Z" fill="#3F3D56"/>
<path d="M732.474 1963.59C735.266 1963.59 737.53 1959.62 737.53 1954.73C737.53 1949.83 735.266 1945.86 732.474 1945.86C729.682 1945.86 727.419 1949.83 727.419 1954.73C727.419 1959.62 729.682 1963.59 732.474 1963.59Z" fill="#D37F65"/>
<path d="M1699.65 2093H672.412C671.697 2093 671.011 2092.72 670.506 2092.23C670 2091.74 669.716 2091.07 669.716 2090.37C669.716 2089.68 670 2089.01 670.506 2088.52C671.011 2088.02 671.697 2087.75 672.412 2087.75H1699.65C1700.36 2087.75 1701.05 2088.02 1701.55 2088.52C1702.06 2089.01 1702.34 2089.68 1702.34 2090.37C1702.34 2091.07 1702.06 2091.74 1701.55 2092.23C1701.05 2092.72 1700.36 2093 1699.65 2093Z" fill="#3F3D56"/>
<path d="M1001.73 148.299H1034.99V163.094H1001.73V217H984.156V163.094H883.814V153.133L982.545 3.71875H1001.73V148.299ZM905.348 148.299H984.156V26.4238L976.393 39.9004L905.348 148.299ZM1189.09 128.084C1189.09 158.162 1183.57 181.014 1172.54 196.639C1161.5 212.166 1145.24 219.93 1123.76 219.93C1102.66 219.93 1086.5 212.312 1075.27 197.078C1064.04 181.746 1058.28 159.48 1057.98 130.281V92.0488C1057.98 62.0684 1063.55 39.3633 1074.68 23.9336C1085.82 8.50391 1102.08 0.789062 1123.46 0.789062C1144.56 0.789062 1160.67 8.25977 1171.8 23.2012C1182.94 38.0449 1188.7 59.9688 1189.09 88.9727V128.084ZM1171.51 89.8516C1171.51 65.4375 1167.51 46.9805 1159.5 34.4805C1151.59 21.9805 1139.58 15.7305 1123.46 15.7305C1107.64 15.7305 1095.73 21.834 1087.72 34.041C1079.71 46.248 1075.61 64.2656 1075.42 88.0938V129.988C1075.42 154.305 1079.52 172.908 1087.72 185.799C1096.02 198.689 1108.03 205.135 1123.76 205.135C1139.38 205.135 1151.2 198.836 1159.21 186.238C1167.31 173.641 1171.41 155.184 1171.51 130.867V89.8516ZM1334.55 148.299H1367.8V163.094H1334.55V217H1316.97V163.094H1216.63V153.133L1315.36 3.71875H1334.55V148.299ZM1238.16 148.299H1316.97V26.4238L1309.21 39.9004L1238.16 148.299Z" fill="#3E4059"/>
<path d="M399.781 377.227H380.289V430H375.484V377.227H356.031V373.125H399.781V377.227ZM412.555 394.883C414.091 392.357 416.057 390.404 418.453 389.023C420.849 387.643 423.466 386.953 426.305 386.953C430.836 386.953 434.208 388.229 436.422 390.781C438.635 393.333 439.755 397.161 439.781 402.266V430H435.133V402.227C435.107 398.451 434.299 395.638 432.711 393.789C431.148 391.94 428.635 391.016 425.172 391.016C422.281 391.016 419.716 391.927 417.477 393.75C415.263 395.547 413.622 397.982 412.555 401.055V430H407.906V370H412.555V394.883ZM468.18 430.781C464.586 430.781 461.331 429.896 458.414 428.125C455.523 426.354 453.271 423.893 451.656 420.742C450.042 417.565 449.234 414.01 449.234 410.078V408.398C449.234 404.336 450.016 400.677 451.578 397.422C453.167 394.167 455.367 391.615 458.18 389.766C460.992 387.891 464.039 386.953 467.32 386.953C472.451 386.953 476.513 388.711 479.508 392.227C482.529 395.716 484.039 400.495 484.039 406.562V409.18H453.883V410.078C453.883 414.87 455.25 418.867 457.984 422.07C460.745 425.247 464.208 426.836 468.375 426.836C470.875 426.836 473.076 426.38 474.977 425.469C476.904 424.557 478.648 423.099 480.211 421.094L483.141 423.32C479.703 428.294 474.716 430.781 468.18 430.781ZM467.32 390.938C463.805 390.938 460.836 392.227 458.414 394.805C456.018 397.383 454.56 400.846 454.039 405.195H479.391V404.688C479.26 400.625 478.102 397.318 475.914 394.766C473.727 392.214 470.862 390.938 467.32 390.938ZM546.578 409.297C546.578 415.885 545.12 421.12 542.203 425C539.286 428.854 535.38 430.781 530.484 430.781C524.703 430.781 520.276 428.75 517.203 424.688V446.25H512.555V387.734H516.891L517.125 393.711C520.172 389.206 524.586 386.953 530.367 386.953C535.419 386.953 539.378 388.867 542.242 392.695C545.133 396.523 546.578 401.836 546.578 408.633V409.297ZM541.891 408.477C541.891 403.086 540.784 398.828 538.57 395.703C536.357 392.578 533.271 391.016 529.312 391.016C526.448 391.016 523.987 391.706 521.93 393.086C519.872 394.466 518.297 396.471 517.203 399.102V419.375C518.323 421.797 519.924 423.646 522.008 424.922C524.091 426.198 526.552 426.836 529.391 426.836C533.323 426.836 536.383 425.273 538.57 422.148C540.784 418.997 541.891 414.44 541.891 408.477ZM583.648 430C583.18 428.672 582.88 426.706 582.75 424.102C581.109 426.237 579.013 427.891 576.461 429.062C573.935 430.208 571.253 430.781 568.414 430.781C564.352 430.781 561.057 429.648 558.531 427.383C556.031 425.117 554.781 422.253 554.781 418.789C554.781 414.674 556.487 411.419 559.898 409.023C563.336 406.628 568.115 405.43 574.234 405.43H582.711V400.625C582.711 397.604 581.773 395.234 579.898 393.516C578.049 391.771 575.341 390.898 571.773 390.898C568.518 390.898 565.823 391.732 563.688 393.398C561.552 395.065 560.484 397.07 560.484 399.414L555.797 399.375C555.797 396.016 557.359 393.112 560.484 390.664C563.609 388.19 567.451 386.953 572.008 386.953C576.721 386.953 580.432 388.138 583.141 390.508C585.875 392.852 587.281 396.133 587.359 400.352V420.352C587.359 424.44 587.789 427.5 588.648 429.531V430H583.648ZM568.961 426.641C572.086 426.641 574.872 425.885 577.32 424.375C579.794 422.865 581.591 420.846 582.711 418.32V409.023H574.352C569.69 409.076 566.044 409.935 563.414 411.602C560.784 413.242 559.469 415.508 559.469 418.398C559.469 420.768 560.341 422.734 562.086 424.297C563.857 425.859 566.148 426.641 568.961 426.641ZM597.984 408.477C597.984 401.862 599.443 396.628 602.359 392.773C605.302 388.893 609.286 386.953 614.312 386.953C620.068 386.953 624.443 389.245 627.438 393.828L627.672 387.734H632.047V429.141C632.047 434.583 630.523 438.893 627.477 442.07C624.43 445.247 620.302 446.836 615.094 446.836C612.151 446.836 609.339 446.172 606.656 444.844C604 443.542 601.904 441.797 600.367 439.609L602.984 436.797C606.292 440.859 610.224 442.891 614.781 442.891C618.688 442.891 621.734 441.732 623.922 439.414C626.109 437.122 627.242 433.932 627.32 429.844V424.531C624.326 428.698 619.964 430.781 614.234 430.781C609.339 430.781 605.406 428.828 602.438 424.922C599.469 421.016 597.984 415.742 597.984 409.102V408.477ZM602.711 409.297C602.711 414.688 603.792 418.945 605.953 422.07C608.115 425.169 611.161 426.719 615.094 426.719C620.849 426.719 624.924 424.141 627.32 418.984V399.336C626.227 396.628 624.651 394.57 622.594 393.164C620.536 391.732 618.062 391.016 615.172 391.016C611.24 391.016 608.18 392.565 605.992 395.664C603.805 398.737 602.711 403.281 602.711 409.297ZM660.602 430.781C657.008 430.781 653.753 429.896 650.836 428.125C647.945 426.354 645.693 423.893 644.078 420.742C642.464 417.565 641.656 414.01 641.656 410.078V408.398C641.656 404.336 642.438 400.677 644 397.422C645.589 394.167 647.789 391.615 650.602 389.766C653.414 387.891 656.461 386.953 659.742 386.953C664.872 386.953 668.935 388.711 671.93 392.227C674.951 395.716 676.461 400.495 676.461 406.562V409.18H646.305V410.078C646.305 414.87 647.672 418.867 650.406 422.07C653.167 425.247 656.63 426.836 660.797 426.836C663.297 426.836 665.497 426.38 667.398 425.469C669.326 424.557 671.07 423.099 672.633 421.094L675.562 423.32C672.125 428.294 667.138 430.781 660.602 430.781ZM659.742 390.938C656.227 390.938 653.258 392.227 650.836 394.805C648.44 397.383 646.982 400.846 646.461 405.195H671.812V404.688C671.682 400.625 670.523 397.318 668.336 394.766C666.148 392.214 663.284 390.938 659.742 390.938ZM718.414 423.281L730.758 387.734H735.797L717.75 437.188L716.812 439.375C714.495 444.505 710.914 447.07 706.07 447.07C704.951 447.07 703.753 446.888 702.477 446.523L702.438 442.656L704.859 442.891C707.151 442.891 709 442.318 710.406 441.172C711.839 440.052 713.049 438.112 714.039 435.352L716.109 429.648L700.172 387.734H705.289L718.414 423.281ZM739.859 408.242C739.859 404.18 740.641 400.521 742.203 397.266C743.792 394.01 746.018 391.484 748.883 389.688C751.773 387.865 755.042 386.953 758.688 386.953C764.312 386.953 768.87 388.932 772.359 392.891C775.849 396.823 777.594 402.044 777.594 408.555V409.531C777.594 413.62 776.799 417.305 775.211 420.586C773.648 423.841 771.435 426.354 768.57 428.125C765.706 429.896 762.438 430.781 758.766 430.781C753.167 430.781 748.609 428.815 745.094 424.883C741.604 420.924 739.859 415.69 739.859 409.18V408.242ZM744.547 409.531C744.547 414.583 745.849 418.737 748.453 421.992C751.083 425.221 754.521 426.836 758.766 426.836C762.984 426.836 766.396 425.221 769 421.992C771.63 418.737 772.945 414.453 772.945 409.141V408.242C772.945 405.013 772.346 402.057 771.148 399.375C769.951 396.693 768.271 394.622 766.109 393.164C763.948 391.68 761.474 390.938 758.688 390.938C754.521 390.938 751.122 392.578 748.492 395.859C745.862 399.115 744.547 403.385 744.547 408.672V409.531ZM814.469 424.648C811.656 428.737 807.164 430.781 800.992 430.781C796.487 430.781 793.062 429.479 790.719 426.875C788.375 424.245 787.177 420.365 787.125 415.234V387.734H791.773V414.648C791.773 422.695 795.029 426.719 801.539 426.719C808.31 426.719 812.594 423.919 814.391 418.32V387.734H819.078V430H814.547L814.469 424.648ZM877.398 430C876.93 428.672 876.63 426.706 876.5 424.102C874.859 426.237 872.763 427.891 870.211 429.062C867.685 430.208 865.003 430.781 862.164 430.781C858.102 430.781 854.807 429.648 852.281 427.383C849.781 425.117 848.531 422.253 848.531 418.789C848.531 414.674 850.237 411.419 853.648 409.023C857.086 406.628 861.865 405.43 867.984 405.43H876.461V400.625C876.461 397.604 875.523 395.234 873.648 393.516C871.799 391.771 869.091 390.898 865.523 390.898C862.268 390.898 859.573 391.732 857.438 393.398C855.302 395.065 854.234 397.07 854.234 399.414L849.547 399.375C849.547 396.016 851.109 393.112 854.234 390.664C857.359 388.19 861.201 386.953 865.758 386.953C870.471 386.953 874.182 388.138 876.891 390.508C879.625 392.852 881.031 396.133 881.109 400.352V420.352C881.109 424.44 881.539 427.5 882.398 429.531V430H877.398ZM862.711 426.641C865.836 426.641 868.622 425.885 871.07 424.375C873.544 422.865 875.341 420.846 876.461 418.32V409.023H868.102C863.44 409.076 859.794 409.935 857.164 411.602C854.534 413.242 853.219 415.508 853.219 418.398C853.219 420.768 854.091 422.734 855.836 424.297C857.607 425.859 859.898 426.641 862.711 426.641ZM913.141 391.719C912.151 391.536 911.096 391.445 909.977 391.445C907.06 391.445 904.586 392.266 902.555 393.906C900.549 395.521 899.117 397.878 898.258 400.977V430H893.609V387.734H898.18L898.258 394.453C900.732 389.453 904.703 386.953 910.172 386.953C911.474 386.953 912.503 387.122 913.258 387.461L913.141 391.719ZM936.148 430.781C932.555 430.781 929.299 429.896 926.383 428.125C923.492 426.354 921.24 423.893 919.625 420.742C918.01 417.565 917.203 414.01 917.203 410.078V408.398C917.203 404.336 917.984 400.677 919.547 397.422C921.135 394.167 923.336 391.615 926.148 389.766C928.961 387.891 932.008 386.953 935.289 386.953C940.419 386.953 944.482 388.711 947.477 392.227C950.497 395.716 952.008 400.495 952.008 406.562V409.18H921.852V410.078C921.852 414.87 923.219 418.867 925.953 422.07C928.714 425.247 932.177 426.836 936.344 426.836C938.844 426.836 941.044 426.38 942.945 425.469C944.872 424.557 946.617 423.099 948.18 421.094L951.109 423.32C947.672 428.294 942.685 430.781 936.148 430.781ZM935.289 390.938C931.773 390.938 928.805 392.227 926.383 394.805C923.987 397.383 922.529 400.846 922.008 405.195H947.359V404.688C947.229 400.625 946.07 397.318 943.883 394.766C941.695 392.214 938.831 390.938 935.289 390.938ZM985.797 430H981.109V370H985.797V430ZM995.953 408.242C995.953 404.18 996.734 400.521 998.297 397.266C999.885 394.01 1002.11 391.484 1004.98 389.688C1007.87 387.865 1011.14 386.953 1014.78 386.953C1020.41 386.953 1024.96 388.932 1028.45 392.891C1031.94 396.823 1033.69 402.044 1033.69 408.555V409.531C1033.69 413.62 1032.89 417.305 1031.3 420.586C1029.74 423.841 1027.53 426.354 1024.66 428.125C1021.8 429.896 1018.53 430.781 1014.86 430.781C1009.26 430.781 1004.7 428.815 1001.19 424.883C997.698 420.924 995.953 415.69 995.953 409.18V408.242ZM1000.64 409.531C1000.64 414.583 1001.94 418.737 1004.55 421.992C1007.18 425.221 1010.61 426.836 1014.86 426.836C1019.08 426.836 1022.49 425.221 1025.09 421.992C1027.72 418.737 1029.04 414.453 1029.04 409.141V408.242C1029.04 405.013 1028.44 402.057 1027.24 399.375C1026.04 396.693 1024.36 394.622 1022.2 393.164C1020.04 391.68 1017.57 390.938 1014.78 390.938C1010.61 390.938 1007.22 392.578 1004.59 395.859C1001.96 399.115 1000.64 403.385 1000.64 408.672V409.531ZM1040.8 408.242C1040.8 404.18 1041.58 400.521 1043.14 397.266C1044.73 394.01 1046.96 391.484 1049.82 389.688C1052.71 387.865 1055.98 386.953 1059.62 386.953C1065.25 386.953 1069.81 388.932 1073.3 392.891C1076.79 396.823 1078.53 402.044 1078.53 408.555V409.531C1078.53 413.62 1077.74 417.305 1076.15 420.586C1074.59 423.841 1072.37 426.354 1069.51 428.125C1066.64 429.896 1063.38 430.781 1059.7 430.781C1054.1 430.781 1049.55 428.815 1046.03 424.883C1042.54 420.924 1040.8 415.69 1040.8 409.18V408.242ZM1045.48 409.531C1045.48 414.583 1046.79 418.737 1049.39 421.992C1052.02 425.221 1055.46 426.836 1059.7 426.836C1063.92 426.836 1067.33 425.221 1069.94 421.992C1072.57 418.737 1073.88 414.453 1073.88 409.141V408.242C1073.88 405.013 1073.28 402.057 1072.09 399.375C1070.89 396.693 1069.21 394.622 1067.05 393.164C1064.89 391.68 1062.41 390.938 1059.62 390.938C1055.46 390.938 1052.06 392.578 1049.43 395.859C1046.8 399.115 1045.48 403.385 1045.48 408.672V409.531ZM1098.26 408.711L1092.91 413.867V430H1088.22V370H1092.91V408.398L1097.32 403.633L1113.49 387.734H1119.39L1101.46 405.547L1120.95 430H1115.37L1098.26 408.711ZM1132.67 430H1127.98V387.734H1132.67V430ZM1127.16 375.508C1127.16 374.622 1127.45 373.88 1128.02 373.281C1128.6 372.656 1129.38 372.344 1130.37 372.344C1131.36 372.344 1132.14 372.656 1132.71 373.281C1133.31 373.88 1133.61 374.622 1133.61 375.508C1133.61 376.393 1133.31 377.135 1132.71 377.734C1132.14 378.333 1131.36 378.633 1130.37 378.633C1129.38 378.633 1128.6 378.333 1128.02 377.734C1127.45 377.135 1127.16 376.393 1127.16 375.508ZM1149.86 387.734L1150.02 394.961C1151.6 392.357 1153.58 390.378 1155.95 389.023C1158.32 387.643 1160.94 386.953 1163.8 386.953C1168.34 386.953 1171.71 388.229 1173.92 390.781C1176.14 393.333 1177.26 397.161 1177.28 402.266V430H1172.63V402.227C1172.61 398.451 1171.8 395.638 1170.21 393.789C1168.65 391.94 1166.14 391.016 1162.67 391.016C1159.78 391.016 1157.22 391.927 1154.98 393.75C1152.76 395.547 1151.12 397.982 1150.05 401.055V430H1145.41V387.734H1149.86ZM1187.52 408.477C1187.52 401.862 1188.97 396.628 1191.89 392.773C1194.83 388.893 1198.82 386.953 1203.84 386.953C1209.6 386.953 1213.97 389.245 1216.97 393.828L1217.2 387.734H1221.58V429.141C1221.58 434.583 1220.05 438.893 1217.01 442.07C1213.96 445.247 1209.83 446.836 1204.62 446.836C1201.68 446.836 1198.87 446.172 1196.19 444.844C1193.53 443.542 1191.43 441.797 1189.9 439.609L1192.52 436.797C1195.82 440.859 1199.76 442.891 1204.31 442.891C1208.22 442.891 1211.27 441.732 1213.45 439.414C1215.64 437.122 1216.77 433.932 1216.85 429.844V424.531C1213.86 428.698 1209.49 430.781 1203.77 430.781C1198.87 430.781 1194.94 428.828 1191.97 424.922C1189 421.016 1187.52 415.742 1187.52 409.102V408.477ZM1192.24 409.297C1192.24 414.688 1193.32 418.945 1195.48 422.07C1197.65 425.169 1200.69 426.719 1204.62 426.719C1210.38 426.719 1214.46 424.141 1216.85 418.984V399.336C1215.76 396.628 1214.18 394.57 1212.12 393.164C1210.07 391.732 1207.59 391.016 1204.7 391.016C1200.77 391.016 1197.71 392.565 1195.52 395.664C1193.34 398.737 1192.24 403.281 1192.24 409.297ZM1256.58 430V391.562H1249.59V387.734H1256.58V382.617C1256.58 378.294 1257.67 374.974 1259.86 372.656C1262.07 370.339 1265.15 369.18 1269.08 369.18C1270.85 369.18 1272.5 369.401 1274.04 369.844L1273.69 373.75C1272.39 373.438 1270.97 373.281 1269.43 373.281C1266.85 373.281 1264.85 374.089 1263.41 375.703C1261.98 377.292 1261.27 379.557 1261.27 382.5V387.734H1271.34V391.562H1261.27V430H1256.58ZM1277.12 408.242C1277.12 404.18 1277.91 400.521 1279.47 397.266C1281.06 394.01 1283.28 391.484 1286.15 389.688C1289.04 387.865 1292.31 386.953 1295.95 386.953C1301.58 386.953 1306.14 388.932 1309.62 392.891C1313.11 396.823 1314.86 402.044 1314.86 408.555V409.531C1314.86 413.62 1314.07 417.305 1312.48 420.586C1310.91 423.841 1308.7 426.354 1305.84 428.125C1302.97 429.896 1299.7 430.781 1296.03 430.781C1290.43 430.781 1285.88 428.815 1282.36 424.883C1278.87 420.924 1277.12 415.69 1277.12 409.18V408.242ZM1281.81 409.531C1281.81 414.583 1283.11 418.737 1285.72 421.992C1288.35 425.221 1291.79 426.836 1296.03 426.836C1300.25 426.836 1303.66 425.221 1306.27 421.992C1308.9 418.737 1310.21 414.453 1310.21 409.141V408.242C1310.21 405.013 1309.61 402.057 1308.41 399.375C1307.22 396.693 1305.54 394.622 1303.38 393.164C1301.21 391.68 1298.74 390.938 1295.95 390.938C1291.79 390.938 1288.39 392.578 1285.76 395.859C1283.13 399.115 1281.81 403.385 1281.81 408.672V409.531ZM1344.08 391.719C1343.09 391.536 1342.03 391.445 1340.91 391.445C1338 391.445 1335.52 392.266 1333.49 393.906C1331.49 395.521 1330.05 397.878 1329.2 400.977V430H1324.55V387.734H1329.12L1329.2 394.453C1331.67 389.453 1335.64 386.953 1341.11 386.953C1342.41 386.953 1343.44 387.122 1344.2 387.461L1344.08 391.719ZM1386.58 426.836C1389.83 426.836 1392.55 425.924 1394.74 424.102C1396.96 422.253 1398.15 419.87 1398.34 416.953H1402.83C1402.7 419.531 1401.89 421.888 1400.41 424.023C1398.92 426.133 1396.94 427.786 1394.47 428.984C1392.02 430.182 1389.39 430.781 1386.58 430.781C1381.03 430.781 1376.63 428.854 1373.38 425C1370.15 421.146 1368.53 415.964 1368.53 409.453V408.047C1368.53 403.88 1369.26 400.195 1370.72 396.992C1372.18 393.789 1374.26 391.315 1376.97 389.57C1379.7 387.826 1382.89 386.953 1386.54 386.953C1391.17 386.953 1394.99 388.333 1397.98 391.094C1401.01 393.854 1402.62 397.487 1402.83 401.992H1398.34C1398.13 398.685 1396.93 396.016 1394.74 393.984C1392.58 391.953 1389.85 390.938 1386.54 390.938C1382.32 390.938 1379.04 392.461 1376.7 395.508C1374.38 398.555 1373.22 402.826 1373.22 408.32V409.688C1373.22 415.078 1374.38 419.284 1376.7 422.305C1379.04 425.326 1382.33 426.836 1386.58 426.836ZM1438.88 430C1438.41 428.672 1438.11 426.706 1437.98 424.102C1436.34 426.237 1434.25 427.891 1431.7 429.062C1429.17 430.208 1426.49 430.781 1423.65 430.781C1419.59 430.781 1416.29 429.648 1413.77 427.383C1411.27 425.117 1410.02 422.253 1410.02 418.789C1410.02 414.674 1411.72 411.419 1415.13 409.023C1418.57 406.628 1423.35 405.43 1429.47 405.43H1437.95V400.625C1437.95 397.604 1437.01 395.234 1435.13 393.516C1433.28 391.771 1430.58 390.898 1427.01 390.898C1423.75 390.898 1421.06 391.732 1418.92 393.398C1416.79 395.065 1415.72 397.07 1415.72 399.414L1411.03 399.375C1411.03 396.016 1412.59 393.112 1415.72 390.664C1418.84 388.19 1422.68 386.953 1427.24 386.953C1431.96 386.953 1435.67 388.138 1438.38 390.508C1441.11 392.852 1442.52 396.133 1442.59 400.352V420.352C1442.59 424.44 1443.02 427.5 1443.88 429.531V430H1438.88ZM1424.2 426.641C1427.32 426.641 1430.11 425.885 1432.55 424.375C1435.03 422.865 1436.83 420.846 1437.95 418.32V409.023H1429.59C1424.92 409.076 1421.28 409.935 1418.65 411.602C1416.02 413.242 1414.7 415.508 1414.7 418.398C1414.7 420.768 1415.58 422.734 1417.32 424.297C1419.09 425.859 1421.38 426.641 1424.2 426.641ZM1459.55 387.734L1459.7 394.961C1461.29 392.357 1463.27 390.378 1465.64 389.023C1468.01 387.643 1470.63 386.953 1473.49 386.953C1478.02 386.953 1481.4 388.229 1483.61 390.781C1485.82 393.333 1486.94 397.161 1486.97 402.266V430H1482.32V402.227C1482.29 398.451 1481.49 395.638 1479.9 393.789C1478.34 391.94 1475.82 391.016 1472.36 391.016C1469.47 391.016 1466.9 391.927 1464.66 393.75C1462.45 395.547 1460.81 397.982 1459.74 401.055V430H1455.09V387.734H1459.55ZM1495.05 387.07L1492.28 385.039C1494.62 381.888 1495.84 378.581 1495.91 375.117V370H1500.52V373.945C1500.52 379.388 1498.7 383.763 1495.05 387.07ZM1517.44 376.914V387.734H1526.19V391.562H1517.44V419.727C1517.44 422.07 1517.85 423.815 1518.69 424.961C1519.55 426.107 1520.97 426.68 1522.95 426.68C1523.73 426.68 1524.99 426.549 1526.73 426.289L1526.93 430.117C1525.71 430.56 1524.04 430.781 1521.93 430.781C1518.73 430.781 1516.4 429.857 1514.94 428.008C1513.48 426.133 1512.75 423.385 1512.75 419.766V391.562H1504.98V387.734H1512.75V376.914H1517.44ZM1589.35 409.297C1589.35 415.885 1587.89 421.12 1584.98 425C1582.06 428.854 1578.14 430.781 1573.22 430.781C1567.33 430.781 1562.88 428.594 1559.86 424.219L1559.66 430H1555.29V370H1559.94V393.867C1562.91 389.258 1567.31 386.953 1573.14 386.953C1578.14 386.953 1582.09 388.867 1584.98 392.695C1587.89 396.497 1589.35 401.797 1589.35 408.594V409.297ZM1584.66 408.477C1584.66 402.904 1583.58 398.607 1581.42 395.586C1579.26 392.539 1576.21 391.016 1572.28 391.016C1569.29 391.016 1566.75 391.758 1564.66 393.242C1562.58 394.701 1561.01 396.849 1559.94 399.688V418.75C1562.28 424.062 1566.42 426.719 1572.36 426.719C1576.21 426.719 1579.22 425.195 1581.38 422.148C1583.57 419.102 1584.66 414.544 1584.66 408.477ZM1616.07 430.781C1612.48 430.781 1609.22 429.896 1606.3 428.125C1603.41 426.354 1601.16 423.893 1599.55 420.742C1597.93 417.565 1597.12 414.01 1597.12 410.078V408.398C1597.12 404.336 1597.91 400.677 1599.47 397.422C1601.06 394.167 1603.26 391.615 1606.07 389.766C1608.88 387.891 1611.93 386.953 1615.21 386.953C1620.34 386.953 1624.4 388.711 1627.4 392.227C1630.42 395.716 1631.93 400.495 1631.93 406.562V409.18H1601.77V410.078C1601.77 414.87 1603.14 418.867 1605.88 422.07C1608.64 425.247 1612.1 426.836 1616.27 426.836C1618.77 426.836 1620.97 426.38 1622.87 425.469C1624.79 424.557 1626.54 423.099 1628.1 421.094L1631.03 423.32C1627.59 428.294 1622.61 430.781 1616.07 430.781ZM1615.21 390.938C1611.7 390.938 1608.73 392.227 1606.3 394.805C1603.91 397.383 1602.45 400.846 1601.93 405.195H1627.28V404.688C1627.15 400.625 1625.99 397.318 1623.8 394.766C1621.62 392.214 1618.75 390.938 1615.21 390.938ZM1663.84 430V391.562H1656.85V387.734H1663.84V382.617C1663.84 378.294 1664.94 374.974 1667.12 372.656C1669.34 370.339 1672.41 369.18 1676.34 369.18C1678.11 369.18 1679.77 369.401 1681.3 369.844L1680.95 373.75C1679.65 373.438 1678.23 373.281 1676.7 373.281C1674.12 373.281 1672.11 374.089 1670.68 375.703C1669.25 377.292 1668.53 379.557 1668.53 382.5V387.734H1678.61V391.562H1668.53V430H1663.84ZM1684.39 408.242C1684.39 404.18 1685.17 400.521 1686.73 397.266C1688.32 394.01 1690.55 391.484 1693.41 389.688C1696.3 387.865 1699.57 386.953 1703.22 386.953C1708.84 386.953 1713.4 388.932 1716.89 392.891C1720.38 396.823 1722.12 402.044 1722.12 408.555V409.531C1722.12 413.62 1721.33 417.305 1719.74 420.586C1718.18 423.841 1715.97 426.354 1713.1 428.125C1710.24 429.896 1706.97 430.781 1703.3 430.781C1697.7 430.781 1693.14 428.815 1689.62 424.883C1686.14 420.924 1684.39 415.69 1684.39 409.18V408.242ZM1689.08 409.531C1689.08 414.583 1690.38 418.737 1692.98 421.992C1695.61 425.221 1699.05 426.836 1703.3 426.836C1707.52 426.836 1710.93 425.221 1713.53 421.992C1716.16 418.737 1717.48 414.453 1717.48 409.141V408.242C1717.48 405.013 1716.88 402.057 1715.68 399.375C1714.48 396.693 1712.8 394.622 1710.64 393.164C1708.48 391.68 1706.01 390.938 1703.22 390.938C1699.05 390.938 1695.65 392.578 1693.02 395.859C1690.39 399.115 1689.08 403.385 1689.08 408.672V409.531ZM1759 424.648C1756.19 428.737 1751.7 430.781 1745.52 430.781C1741.02 430.781 1737.59 429.479 1735.25 426.875C1732.91 424.245 1731.71 420.365 1731.66 415.234V387.734H1736.3V414.648C1736.3 422.695 1739.56 426.719 1746.07 426.719C1752.84 426.719 1757.12 423.919 1758.92 418.32V387.734H1763.61V430H1759.08L1759 424.648ZM1780.25 387.734L1780.41 394.961C1781.99 392.357 1783.97 390.378 1786.34 389.023C1788.71 387.643 1791.33 386.953 1794.2 386.953C1798.73 386.953 1802.1 388.229 1804.31 390.781C1806.53 393.333 1807.65 397.161 1807.67 402.266V430H1803.02V402.227C1803 398.451 1802.19 395.638 1800.6 393.789C1799.04 391.94 1796.53 391.016 1793.06 391.016C1790.17 391.016 1787.61 391.927 1785.37 393.75C1783.15 395.547 1781.51 397.982 1780.45 401.055V430H1775.8V387.734H1780.25ZM1817.91 408.477C1817.91 401.914 1819.36 396.693 1822.28 392.812C1825.22 388.906 1829.21 386.953 1834.23 386.953C1839.94 386.953 1844.29 389.206 1847.28 393.711V370H1851.93V430H1847.55L1847.36 424.375C1844.36 428.646 1839.96 430.781 1834.16 430.781C1829.29 430.781 1825.35 428.828 1822.36 424.922C1819.39 420.99 1817.91 415.69 1817.91 409.023V408.477ZM1822.63 409.297C1822.63 414.688 1823.71 418.945 1825.88 422.07C1828.04 425.169 1831.08 426.719 1835.02 426.719C1840.77 426.719 1844.86 424.18 1847.28 419.102V399.258C1844.86 393.763 1840.8 391.016 1835.09 391.016C1831.16 391.016 1828.1 392.565 1825.91 395.664C1823.73 398.737 1822.63 403.281 1822.63 409.297ZM1863.8 427.188C1863.8 426.276 1864.09 425.508 1864.66 424.883C1865.26 424.232 1866.08 423.906 1867.12 423.906C1868.17 423.906 1868.99 424.232 1869.59 424.883C1870.18 425.508 1870.48 426.276 1870.48 427.188C1870.48 428.099 1870.18 428.854 1869.59 429.453C1868.99 430.026 1868.17 430.312 1867.12 430.312C1866.08 430.312 1865.26 430.026 1864.66 429.453C1864.09 428.854 1863.8 428.099 1863.8 427.188Z" fill="#3E4059"/>
</svg>
