<svg width="203" height="181" viewBox="0 0 203 181" fill="none" xmlns="http://www.w3.org/2000/svg">
<circle cx="75" cy="115" r="35" stroke="#F4F1DE" stroke-width="10"/>
<circle cx="107" cy="88" r="35" stroke="#F4F1DE" stroke-width="10"/>
<path d="M179.833 32.1129C180.091 29.3636 178.072 26.9252 175.323 26.6667L130.52 22.4528C127.771 22.1942 125.333 24.2133 125.074 26.9626C124.816 29.7119 126.835 32.1502 129.584 32.4088L169.408 36.1545L165.663 75.9788C165.404 78.728 167.423 81.1664 170.172 81.425C172.922 81.6836 175.36 79.6645 175.619 76.9152L179.833 32.1129ZM139.533 67.385L178.043 35.4958L171.666 27.7936L133.155 59.6829L139.533 67.385Z" fill="#F4F1DE"/>
<line x1="48.2854" y1="137.505" x2="7.05474" y2="173.48" stroke="#F4F1DE" stroke-width="10" stroke-linecap="round"/>
<line x1="30.9331" y1="172.756" x2="9.75632" y2="150.067" stroke="#F4F1DE" stroke-width="10" stroke-linecap="round"/>
</svg>
